<svg xmlns="http://www.w3.org/2000/svg" viewBox="0 0 512 512"><rect width="512" height="512" rx="50" ry="50" fill="#005400"/><path d="M28.711-41.382L46.729-41.382L67.163 0L85.986 0L85.986-0.952L63.208-45.557Q67.603-47.534 71.191-50.244Q74.780-52.954 77.344-56.543L77.344-56.543Q79.907-60.132 81.335-64.600Q82.764-69.067 82.764-74.561L82.764-74.561Q82.764-82.544 79.980-88.513Q77.197-94.482 72.217-98.511L72.217-98.511Q67.163-102.466 60.205-104.517Q53.247-106.567 44.971-106.641L44.971-106.641L11.133-106.641L11.133 0L28.711 0L28.711-41.382ZM45.190-55.737L28.711-55.737L28.711-92.285L44.971-92.285Q49.512-92.212 53.174-91.077Q56.836-89.941 59.399-87.744L59.399-87.744Q62.183-85.400 63.611-81.921Q65.039-78.442 65.039-73.828L65.039-73.828Q65.039-69.727 63.721-66.504Q62.402-63.281 60.059-61.084L60.059-61.084Q57.422-58.521 53.650-57.166Q49.878-55.811 45.190-55.737L45.190-55.737ZM134.985-61.011L121.802-106.641L99.976-106.641L99.976 0L116.455 0L116.455-36.182L115.503-82.031L130.371-32.886L139.526-32.886L155.933-83.789L154.907-36.182L154.907 0L171.460 0L171.460-106.641L149.561-106.641L134.985-61.011ZM287.109 9.155L303.223 9.155L345.044-106.641L329.004-106.641L287.109 9.155ZM371.558-72.949L399.756-65.918L379.907-41.968L392.065-33.545L407.520-59.766L423.047-32.739L435.132-41.602L415.869-65.332L444.507-72.070L440.039-86.426L413.086-74.927L415.649-106.641L400.854-106.641L403.125-75.366L375.952-87.085L371.558-72.949Z" fill="#ffffff" transform="translate(28.18000316619873, 304.7430000305176)"/></svg>